<svg width="239" height="185" viewBox="0 0 239 185" fill="none" xmlns="http://www.w3.org/2000/svg">
<g opacity="0.69" clip-path="url(#clip0)">
<path d="M156.84 81.0077C167.116 81.0077 175.447 72.6706 175.447 62.3862C175.447 52.1018 167.116 43.7646 156.84 43.7646C146.563 43.7646 138.232 52.1018 138.232 62.3862C138.232 72.6706 146.563 81.0077 156.84 81.0077Z" fill="#7C7C7C" fill-opacity="0.88"/>
<path d="M207.88 76.2702C207.921 76.2627 207.952 76.2341 208 76.2414C207.979 76.1608 207.952 76.0819 207.918 76.0056C207.859 76.0864 207.799 76.1688 207.746 76.241L207.88 76.2702Z" fill="white"/>
<path d="M83.0784 106.46C83.1871 110.523 83.8671 114.55 85.0984 118.423C85.1265 118.513 85.156 118.601 85.1855 118.691H92.7239C92.7158 118.61 92.7078 118.521 92.6997 118.423C92.1971 112.64 89.2992 77.4436 92.7641 71.4247C92.4612 71.913 82.494 88.0851 83.0784 106.46Z" fill="#E6E6E6"/>
<path d="M83.644 118.423C83.707 118.512 83.7726 118.602 83.8397 118.691H89.4948C89.4519 118.614 89.4023 118.525 89.3446 118.423C88.4104 116.735 85.6452 111.69 83.0783 106.46C80.3198 100.839 77.7892 95.0054 78.0023 92.894C77.9366 93.3702 76.0279 107.887 83.644 118.423Z" fill="#E6E6E6"/>
<path d="M142.408 119.39C142.314 122.932 141.721 126.443 140.647 129.819C140.623 129.898 140.597 129.975 140.571 130.053H133.999C134.006 129.983 134.013 129.905 134.02 129.819C134.459 124.778 136.985 94.0932 133.964 88.8458C134.228 89.2715 142.918 103.371 142.408 119.39Z" fill="#E6E6E6"/>
<path d="M141.915 129.819C141.86 129.898 141.803 129.976 141.745 130.053H136.814C136.852 129.987 136.895 129.908 136.945 129.819C137.76 128.348 140.171 123.95 142.408 119.39C144.813 114.49 147.02 109.404 146.834 107.563C146.891 107.978 148.555 120.634 141.915 129.819Z" fill="#E6E6E6"/>
<path d="M67.265 15.1148L70.3298 12.6616C67.9489 12.3988 66.9707 13.6983 66.5703 14.7268C64.7102 13.9539 62.6853 14.9669 62.6853 14.9669L68.8174 17.1948C68.5081 16.3678 67.9696 15.6463 67.265 15.1148V15.1148Z" fill="#949494"/>
<path d="M159.575 2.48751L162.64 0.0343554C160.259 -0.228527 159.28 1.07097 158.88 2.09954C157.02 1.32658 154.995 2.33958 154.995 2.33958L161.127 4.56748C160.818 3.74056 160.279 3.01903 159.575 2.48751V2.48751Z" fill="#949494"/>
<path d="M204.668 99.4982C204.668 101.531 204.597 103.547 204.456 105.546C203.364 121.321 197.899 136.478 188.674 149.315C187.468 150.999 186.202 152.635 184.876 154.225C181.44 158.349 177.625 162.141 173.481 165.552L155.317 154.886L144.457 129.518C144.457 129.518 160.661 96.6839 204.639 97.2793C204.658 98.0163 204.667 98.7559 204.668 99.4982Z" fill="#949494"/>
<path d="M204.456 105.546C203.62 117.334 200.352 128.82 194.858 139.28C189.364 149.741 181.763 158.948 172.535 166.321L155.66 156.412L146.029 133.914C146.029 133.914 161.636 102.291 204.456 105.546Z" fill="#C9C9C9"/>
<path d="M188.674 149.315C187.468 150.999 186.202 152.635 184.876 154.225C175.99 164.909 164.636 173.265 151.797 178.569C149.197 179.642 146.537 180.588 143.814 181.407C124.159 186.638 103.336 185.315 84.4993 177.638C65.8702 169.317 50.8161 154.621 42.0407 136.19C40.8614 133.709 39.8009 131.165 38.8591 128.558C55.2833 116.517 87.6468 99.2752 122.919 116.029C132.676 120.664 141.388 124.888 149.056 128.703C168.512 138.354 181.461 145.312 188.674 149.315Z" fill="#949494"/>
<path d="M184.876 154.225C175.691 165.241 163.885 173.77 150.544 179.024C137.203 184.279 122.755 186.092 108.531 184.296C94.3064 182.5 80.7617 177.153 69.1429 168.747C57.524 160.341 48.2042 149.145 42.0408 136.19C55.7577 125.335 87.3953 105.827 122.115 122.316C131.044 126.557 139.015 130.423 146.029 133.914C166.476 144.056 179.071 150.949 184.876 154.225Z" fill="#C9C9C9"/>
<path d="M160.666 174.291C157.793 175.885 154.832 177.313 151.797 178.569C141.469 182.829 130.403 185.014 119.232 185C106.013 184.995 92.975 181.923 81.1422 176.025C69.3094 170.127 59.0039 161.564 51.0352 151.009C71.4402 148.856 127.844 145.952 160.666 174.291Z" fill="#949494"/>
<path d="M151.797 178.569C135.781 185.16 118.143 186.73 101.216 183.071C84.2894 179.413 68.8708 170.698 57 158.08C64.4219 156.989 122.691 149.496 151.797 178.569Z" fill="#C9C9C9"/>
<path d="M190.338 52.0839V52.0866C129.332 6.94631 59.4373 38.7184 58.8975 38.9623V38.9597C66.8197 31.0323 76.2268 24.7468 86.58 20.4632C96.9331 16.1795 108.029 13.982 119.232 13.9963C148.891 13.9963 175.02 29.1217 190.338 52.0839Z" fill="#E6E6E6"/>
<path d="M63.7904 101.156C74.1105 99.2935 79.3989 80.7005 75.6024 59.627C71.8058 38.5535 60.3619 22.9796 50.0418 24.8418C39.7216 26.7039 34.4332 45.2969 38.2298 66.3704C42.0263 87.4439 53.4702 103.018 63.7904 101.156Z" fill="#949494"/>
<path d="M66.4425 125.767C65.8307 79.4789 50.3553 36.0406 50.1992 35.6076L48.7878 36.1171C48.9433 36.548 64.3337 79.7587 64.9423 125.787L66.4425 125.767Z" fill="#C9C9C9"/>
<path d="M38.9864 57.7623L38.5247 59.1912L57.0517 65.1874L57.5134 63.7585L38.9864 57.7623Z" fill="#C9C9C9"/>
<path d="M73.8373 56.1527L58.5723 68.2515L59.5039 69.4287L74.7689 57.33L73.8373 56.1527Z" fill="#C9C9C9"/>
<path d="M113.414 94.4824C124.761 94.4824 133.96 75.6985 133.96 52.5273C133.96 29.3562 124.761 10.5723 113.414 10.5723C102.066 10.5723 92.8672 29.3562 92.8672 52.5273C92.8672 75.6985 102.066 94.4824 113.414 94.4824Z" fill="#949494"/>
<path d="M111.516 121.201C119.745 71.7905 111.599 22.5585 111.516 22.0673L109.915 22.3387C109.998 22.8274 118.097 71.8008 109.915 120.934L111.516 121.201Z" fill="#C9C9C9"/>
<path d="M95.3245 43.5057L94.5586 44.9387L113.138 54.8841L113.904 53.4512L95.3245 43.5057Z" fill="#C9C9C9"/>
<path d="M132.747 48.4877L114.169 58.4388L114.936 59.8716L133.513 49.9204L132.747 48.4877Z" fill="#C9C9C9"/>
<path d="M202.66 80.9867C195.122 76.7511 187.246 73.1473 179.113 70.2124C134.144 53.9277 89.552 60.204 72.0979 83.5098C85.6812 54.9585 134.149 45.9808 183.06 63.6922C188.753 65.7519 194.324 68.1337 199.746 70.8261C200.928 74.1491 201.901 77.5425 202.66 80.9867V80.9867Z" fill="#E6E6E6"/>
<path d="M141.927 35.0421L144.991 32.5889C142.611 32.326 141.632 33.6255 141.232 34.6541C139.372 33.8811 137.347 34.8942 137.347 34.8942L143.479 37.1221C143.17 36.2951 142.631 35.5736 141.927 35.0421Z" fill="#949494"/>
</g>
<path d="M6.33817 107.965C6.33817 107.965 -17.0612 121.76 26.0597 143C26.0597 143 35.5606 125.757 25.0563 111.701C23.0169 108.961 20.0194 107.046 16.632 106.321C13.2446 105.595 9.70265 106.11 6.67726 107.766L6.33817 107.965Z" fill="#C9C9C9"/>
<path d="M7 108C7 108 26.5388 122.833 25.9886 143" stroke="#535461" stroke-miterlimit="10"/>
<path d="M26.8198 144C26.8198 144 19.6517 119.234 28.1729 101.034C31.7916 93.4168 32.8824 84.811 31.2816 76.5093C30.4919 72.5749 29.3494 68.7224 27.8684 65" stroke="#535461" stroke-width="2" stroke-miterlimit="10"/>
<path d="M33 53.1491C33 56.1885 27.5 65 27.5 65C27.5 65 22 56.1885 22 53.1491C22.0923 51.753 22.7106 50.4442 23.7296 49.4881C24.7487 48.532 26.0922 48 27.488 48C28.8837 48 30.2273 48.532 31.2463 49.4881C32.2653 50.4442 32.8837 51.753 32.9759 53.1491H33Z" fill="#C9C9C9"/>
<path d="M42.9213 69.9374C41.2911 72.526 32 77 32 77C32 77 32.1702 66.4568 33.8004 63.8682C34.1636 63.1995 34.6566 62.6146 35.2487 62.1496C35.8407 61.6846 36.5194 61.3495 37.2425 61.1649C37.9657 60.9804 38.718 60.9503 39.4529 61.0767C40.1879 61.203 40.8897 61.483 41.5151 61.8994C42.1405 62.3158 42.6761 62.8597 43.0887 63.4974C43.5014 64.1351 43.7823 64.8531 43.9141 65.6068C44.0459 66.3606 44.0258 67.1342 43.855 67.8797C43.6843 68.6252 43.3665 69.3267 42.9213 69.9409V69.9374Z" fill="#C9C9C9"/>
<path d="M42.5191 98.2762C39.7111 99.614 29 98.6876 29 98.6876C29 98.6876 34.5803 90.0692 37.3919 88.7415C38.0648 88.3696 38.8121 88.1311 39.5873 88.0408C40.3625 87.9505 41.1493 88.0104 41.8989 88.2166C42.6484 88.4228 43.3449 88.771 43.9451 89.2396C44.5453 89.7083 45.0365 90.2874 45.3883 90.9412C45.7401 91.595 45.9451 92.3095 45.9904 93.0405C46.0357 93.7715 45.9205 94.5034 45.6519 95.191C45.3832 95.8786 44.9669 96.5072 44.4287 97.0378C43.8904 97.5685 43.2417 97.99 42.5227 98.2762H42.5191Z" fill="#C9C9C9"/>
<path d="M37.0038 120.453C34.5214 122.207 24 123 24 123C24 123 27.8724 113.629 30.3549 111.859C31.5511 111.119 32.9973 110.843 34.3991 111.086C35.801 111.33 37.0531 112.074 37.9007 113.169C38.7484 114.264 39.1278 115.626 38.9618 116.978C38.7959 118.331 38.097 119.572 37.0073 120.45L37.0038 120.453Z" fill="#C9C9C9"/>
<path d="M20.3397 77.5343C22.3987 79.7261 32 82 32 82C32 82 29.6477 71.5514 27.5887 69.3596C26.581 68.4211 25.2854 67.9374 23.9644 68.0065C22.6434 68.0755 21.3957 68.6922 20.4741 69.7314C19.5525 70.7707 19.0259 72.155 19.0009 73.6038C18.976 75.0526 19.4545 76.4576 20.3397 77.5343Z" fill="#C9C9C9"/>
<path d="M14.2628 103.211C16.9084 104.67 27 103.659 27 103.659C27 103.659 21.7424 94.2566 19.1103 92.8086C18.4762 92.4031 17.7722 92.143 17.0418 92.0445C16.3114 91.9461 15.5702 92.0113 14.864 92.2362C14.1577 92.461 13.5016 92.8408 12.9361 93.3519C12.3705 93.863 11.9078 94.4946 11.5763 95.2076C11.2448 95.9206 11.0518 96.6998 11.0091 97.497C10.9664 98.2942 11.0749 99.0925 11.328 99.8423C11.5811 100.592 11.9733 101.278 12.4805 101.856C12.9876 102.435 13.5988 102.895 14.2762 103.207L14.2628 103.211Z" fill="#C9C9C9"/>
<path d="M11.6339 128.33C14.1855 130.168 25 131 25 131C25 131 21.0197 121.176 18.4681 119.32C17.8665 118.826 17.1674 118.458 16.4139 118.237C15.6605 118.017 14.8687 117.949 14.0874 118.038C13.3061 118.128 12.5518 118.372 11.8711 118.757C11.1905 119.141 10.5979 119.657 10.1299 120.274C9.66184 120.89 9.32837 121.594 9.14999 122.341C8.97161 123.088 8.95211 123.862 9.09271 124.617C9.23331 125.371 9.53101 126.09 9.96746 126.728C10.4039 127.366 10.9698 127.91 11.6303 128.327L11.6339 128.33Z" fill="#C9C9C9"/>
<path opacity="0.25" d="M33 53.1491C33 56.1885 27.5 65 27.5 65C27.5 65 22 56.1885 22 53.1491C22.0923 51.753 22.7106 50.4442 23.7296 49.4881C24.7487 48.532 26.0922 48 27.488 48C28.8837 48 30.2273 48.532 31.2463 49.4881C32.2653 50.4442 32.8837 51.753 32.9759 53.1491H33Z" fill="black"/>
<path opacity="0.25" d="M42.9213 69.9374C41.2911 72.526 32 77 32 77C32 77 32.1702 66.4568 33.8004 63.8682C34.1636 63.1995 34.6566 62.6146 35.2487 62.1496C35.8407 61.6846 36.5194 61.3495 37.2425 61.1649C37.9657 60.9804 38.718 60.9503 39.4529 61.0767C40.1879 61.203 40.8897 61.483 41.5151 61.8994C42.1405 62.3158 42.6761 62.8597 43.0887 63.4974C43.5014 64.1351 43.7823 64.8531 43.9141 65.6068C44.0459 66.3606 44.0258 67.1342 43.855 67.8797C43.6843 68.6252 43.3665 69.3267 42.9213 69.9409V69.9374Z" fill="black"/>
<path opacity="0.25" d="M42.5191 98.2762C39.7111 99.614 29 98.6876 29 98.6876C29 98.6876 34.5803 90.0692 37.3919 88.7415C38.0648 88.3696 38.8121 88.1311 39.5873 88.0408C40.3625 87.9505 41.1493 88.0104 41.8989 88.2166C42.6484 88.4228 43.3449 88.771 43.9451 89.2396C44.5453 89.7083 45.0365 90.2874 45.3883 90.9412C45.7401 91.595 45.9451 92.3095 45.9904 93.0405C46.0357 93.7715 45.9205 94.5034 45.6519 95.191C45.3832 95.8786 44.9669 96.5072 44.4287 97.0378C43.8904 97.5685 43.2417 97.99 42.5227 98.2762H42.5191Z" fill="black"/>
<path opacity="0.25" d="M37.0038 120.453C34.5214 122.207 24 123 24 123C24 123 27.8724 113.629 30.3549 111.859C31.5511 111.119 32.9973 110.843 34.3991 111.086C35.801 111.33 37.0531 112.074 37.9007 113.169C38.7484 114.264 39.1278 115.626 38.9618 116.978C38.7959 118.331 38.097 119.572 37.0073 120.45L37.0038 120.453Z" fill="black"/>
<path opacity="0.25" d="M20.3397 77.5343C22.3987 79.7261 32 82 32 82C32 82 29.6477 71.5514 27.5887 69.3596C26.581 68.4211 25.2854 67.9374 23.9644 68.0065C22.6434 68.0755 21.3957 68.6922 20.4741 69.7314C19.5525 70.7707 19.0259 72.155 19.0009 73.6038C18.976 75.0526 19.4545 76.4576 20.3397 77.5343Z" fill="black"/>
<path opacity="0.25" d="M14.2628 103.211C16.9084 104.67 27 103.659 27 103.659C27 103.659 21.7424 94.2566 19.1103 92.8086C18.4762 92.4031 17.7722 92.143 17.0418 92.0445C16.3114 91.9461 15.5702 92.0113 14.864 92.2362C14.1577 92.461 13.5016 92.8408 12.9361 93.3519C12.3705 93.863 11.9078 94.4946 11.5763 95.2076C11.2448 95.9206 11.0518 96.6998 11.0091 97.497C10.9664 98.2942 11.0749 99.0925 11.328 99.8423C11.5811 100.592 11.9733 101.278 12.4805 101.856C12.9876 102.435 13.5988 102.895 14.2762 103.207L14.2628 103.211Z" fill="black"/>
<path opacity="0.25" d="M11.6339 128.33C14.1855 130.168 25 131 25 131C25 131 21.0197 121.176 18.4681 119.32C17.8665 118.826 17.1674 118.458 16.4139 118.237C15.6605 118.017 14.8687 117.949 14.0874 118.038C13.3061 118.128 12.5518 118.372 11.8711 118.757C11.1905 119.141 10.5979 119.657 10.1299 120.274C9.66184 120.89 9.32837 121.594 9.14999 122.341C8.97161 123.088 8.95211 123.862 9.09271 124.617C9.23331 125.371 9.53101 126.09 9.96746 126.728C10.4039 127.366 10.9698 127.91 11.6303 128.327L11.6339 128.33Z" fill="black"/>
<path d="M43.8198 144C43.8198 144 36.6517 119.234 45.1729 101.034C48.7916 93.4168 49.8824 84.811 48.2816 76.5093C47.4919 72.5749 46.3494 68.7224 44.8684 65" stroke="#535461" stroke-width="2" stroke-miterlimit="10"/>
<path d="M50 53.1491C50 56.1885 44.5 65 44.5 65C44.5 65 39 56.1885 39 53.1491C39.0923 51.753 39.7106 50.4442 40.7296 49.4881C41.7487 48.532 43.0922 48 44.488 48C45.8837 48 47.2273 48.532 48.2463 49.4881C49.2653 50.4442 49.8836 51.753 49.9759 53.1491H50Z" fill="#C9C9C9"/>
<path d="M59.8314 70.3788C58.0654 72.8056 48 77 48 77C48 77 48.1843 67.1157 49.9504 64.6889C50.3439 64.062 50.878 63.5137 51.5194 63.0777C52.1608 62.6418 52.896 62.3276 53.6794 62.1546C54.4628 61.9816 55.2779 61.9534 56.074 62.0719C56.8702 62.1903 57.6306 62.4529 58.3081 62.8432C58.9856 63.2336 59.5658 63.7435 60.0128 64.3413C60.4599 64.9391 60.7642 65.6122 60.907 66.3189C61.0498 67.0256 61.028 67.7508 60.843 68.4497C60.658 69.1486 60.3137 69.8063 59.8314 70.3821V70.3788Z" fill="#C9C9C9"/>
<path d="M58.7171 99.2766C56.0757 100.614 46 99.6877 46 99.6877C46 99.6877 51.2493 91.0732 53.8941 89.7461C54.5272 89.3728 55.2307 89.133 55.9607 89.0417C56.6908 88.9504 57.4319 89.0095 58.1381 89.2153C58.8443 89.4211 59.5005 89.7693 60.0659 90.2382C60.6314 90.7071 61.0941 91.2868 61.4253 91.9412C61.7565 92.5956 61.9491 93.3109 61.9912 94.0425C62.0333 94.7742 61.924 95.5066 61.67 96.1944C61.4161 96.8823 61.023 97.5108 60.515 98.041C60.007 98.5712 59.3951 98.9917 58.7171 99.2766V99.2766Z" fill="#C9C9C9"/>
<path d="M54.0038 120.453C51.5214 122.207 41 123 41 123C41 123 44.8724 113.629 47.3549 111.859C48.5511 111.119 49.9973 110.843 51.3991 111.086C52.801 111.33 54.0531 112.074 54.9007 113.169C55.7484 114.264 56.1278 115.626 55.9618 116.978C55.7959 118.331 55.0969 119.572 54.0073 120.45L54.0038 120.453Z" fill="#C9C9C9"/>
<path d="M36.4427 77.8532C38.6602 79.8885 49 82 49 82C49 82 46.4668 72.2977 44.2494 70.2625C43.1641 69.3911 41.7689 68.9419 40.3463 69.006C38.9237 69.0701 37.58 69.6427 36.5875 70.6078C35.595 71.5728 35.0279 72.8582 35.001 74.2035C34.9741 75.5488 35.4895 76.8535 36.4427 77.8532V77.8532Z" fill="#C9C9C9"/>
<path d="M30.7529 103.255C33.5044 104.632 44 103.678 44 103.678C44 103.678 38.5319 94.8047 35.7804 93.4382C34.4733 92.8916 33.0039 92.8551 31.6703 93.3358C30.3368 93.8166 29.2389 94.7788 28.5994 96.0272C27.9598 97.2756 27.8265 98.7167 28.2264 100.058C28.6263 101.4 29.5296 102.542 30.7529 103.252V103.255Z" fill="#C9C9C9"/>
<path d="M28.6339 129.33C31.1855 131.169 42 132 42 132C42 132 38.0197 122.176 35.4681 120.32C34.8665 119.826 34.1674 119.458 33.414 119.237C32.6605 119.017 31.8687 118.949 31.0874 119.038C30.3061 119.128 29.5518 119.372 28.8711 119.757C28.1905 120.141 27.5979 120.657 27.1299 121.274C26.6618 121.89 26.3284 122.594 26.15 123.341C25.9716 124.088 25.9521 124.862 26.0927 125.617C26.2333 126.371 26.531 127.09 26.9675 127.728C27.4039 128.366 27.9699 128.91 28.6304 129.327L28.6339 129.33Z" fill="#C9C9C9"/>
<path d="M46 143H25V145H46V143Z" fill="#C9C9C9"/>
<path d="M183.338 139.965C183.338 139.965 159.939 153.76 203.06 175C203.06 175 212.561 157.757 202.056 143.701C200.017 140.961 197.019 139.046 193.632 138.321C190.245 137.595 186.703 138.11 183.677 139.766L183.338 139.965Z" fill="#C9C9C9"/>
<path d="M184 140C184 140 203.539 154.833 202.989 175" stroke="#535461" stroke-miterlimit="10"/>
<path d="M203.82 176C203.82 176 196.652 151.234 205.173 133.034C208.792 125.417 209.882 116.811 208.282 108.509C207.492 104.575 206.349 100.722 204.868 97" stroke="#535461" stroke-width="2" stroke-miterlimit="10"/>
<path d="M210 85.1491C210 88.1885 204.5 97 204.5 97C204.5 97 199 88.1885 199 85.1491C199.092 83.753 199.711 82.4442 200.73 81.4881C201.749 80.532 203.092 80 204.488 80C205.884 80 207.227 80.532 208.246 81.4881C209.265 82.4442 209.884 83.753 209.976 85.1491H210Z" fill="#C9C9C9"/>
<path d="M219.921 101.937C218.291 104.526 209 109 209 109C209 109 209.17 98.4568 210.8 95.8682C211.164 95.1995 211.657 94.6146 212.249 94.1496C212.841 93.6846 213.519 93.3495 214.243 93.1649C214.966 92.9804 215.718 92.9503 216.453 93.0767C217.188 93.203 217.89 93.483 218.515 93.8994C219.14 94.3158 219.676 94.8597 220.089 95.4974C220.501 96.1351 220.782 96.8531 220.914 97.6068C221.046 98.3606 221.026 99.1342 220.855 99.8797C220.684 100.625 220.366 101.327 219.921 101.941V101.937Z" fill="#C9C9C9"/>
<path d="M219.519 130.276C216.711 131.614 206 130.688 206 130.688C206 130.688 211.58 122.069 214.392 120.741C215.065 120.37 215.812 120.131 216.587 120.041C217.363 119.951 218.149 120.01 218.899 120.217C219.648 120.423 220.345 120.771 220.945 121.24C221.545 121.708 222.037 122.287 222.388 122.941C222.74 123.595 222.945 124.309 222.99 125.04C223.036 125.771 222.921 126.503 222.652 127.191C222.383 127.879 221.967 128.507 221.429 129.038C220.89 129.569 220.242 129.99 219.523 130.276H219.519Z" fill="#C9C9C9"/>
<path d="M214.004 152.453C211.521 154.207 201 155 201 155C201 155 204.872 145.629 207.355 143.859C208.551 143.119 209.997 142.843 211.399 143.086C212.801 143.33 214.053 144.074 214.901 145.169C215.748 146.264 216.128 147.626 215.962 148.978C215.796 150.331 215.097 151.572 214.007 152.45L214.004 152.453Z" fill="#C9C9C9"/>
<path d="M197.34 109.534C199.399 111.726 209 114 209 114C209 114 206.648 103.551 204.589 101.36C203.581 100.421 202.285 99.9374 200.964 100.006C199.643 100.076 198.396 100.692 197.474 101.731C196.553 102.771 196.026 104.155 196.001 105.604C195.976 107.053 196.455 108.458 197.34 109.534Z" fill="#C9C9C9"/>
<path d="M191.263 135.211C193.908 136.67 204 135.659 204 135.659C204 135.659 198.742 126.257 196.11 124.809C195.476 124.403 194.772 124.143 194.042 124.045C193.311 123.946 192.57 124.011 191.864 124.236C191.158 124.461 190.502 124.841 189.936 125.352C189.371 125.863 188.908 126.495 188.576 127.208C188.245 127.921 188.052 128.7 188.009 129.497C187.966 130.294 188.075 131.092 188.328 131.842C188.581 132.592 188.973 133.278 189.48 133.856C189.988 134.435 190.599 134.895 191.276 135.207L191.263 135.211Z" fill="#C9C9C9"/>
<path d="M188.634 160.33C191.186 162.168 202 163 202 163C202 163 198.02 153.176 195.468 151.32C194.866 150.826 194.167 150.458 193.414 150.237C192.66 150.017 191.869 149.949 191.087 150.038C190.306 150.128 189.552 150.372 188.871 150.757C188.19 151.141 187.598 151.657 187.13 152.274C186.662 152.89 186.328 153.594 186.15 154.341C185.972 155.088 185.952 155.862 186.093 156.617C186.233 157.371 186.531 158.09 186.967 158.728C187.404 159.366 187.97 159.91 188.63 160.327L188.634 160.33Z" fill="#C9C9C9"/>
<path opacity="0.25" d="M210 85.1491C210 88.1885 204.5 97 204.5 97C204.5 97 199 88.1885 199 85.1491C199.092 83.753 199.711 82.4442 200.73 81.4881C201.749 80.532 203.092 80 204.488 80C205.884 80 207.227 80.532 208.246 81.4881C209.265 82.4442 209.884 83.753 209.976 85.1491H210Z" fill="black"/>
<path opacity="0.25" d="M219.921 101.937C218.291 104.526 209 109 209 109C209 109 209.17 98.4568 210.8 95.8682C211.164 95.1995 211.657 94.6146 212.249 94.1496C212.841 93.6846 213.519 93.3495 214.243 93.1649C214.966 92.9804 215.718 92.9503 216.453 93.0767C217.188 93.203 217.89 93.483 218.515 93.8994C219.14 94.3158 219.676 94.8597 220.089 95.4974C220.501 96.1351 220.782 96.8531 220.914 97.6068C221.046 98.3606 221.026 99.1342 220.855 99.8797C220.684 100.625 220.366 101.327 219.921 101.941V101.937Z" fill="black"/>
<path opacity="0.25" d="M219.519 130.276C216.711 131.614 206 130.688 206 130.688C206 130.688 211.58 122.069 214.392 120.741C215.065 120.37 215.812 120.131 216.587 120.041C217.363 119.951 218.149 120.01 218.899 120.217C219.648 120.423 220.345 120.771 220.945 121.24C221.545 121.708 222.037 122.287 222.388 122.941C222.74 123.595 222.945 124.309 222.99 125.04C223.036 125.771 222.921 126.503 222.652 127.191C222.383 127.879 221.967 128.507 221.429 129.038C220.89 129.569 220.242 129.99 219.523 130.276H219.519Z" fill="black"/>
<path opacity="0.25" d="M214.004 152.453C211.521 154.207 201 155 201 155C201 155 204.872 145.629 207.355 143.859C208.551 143.119 209.997 142.843 211.399 143.086C212.801 143.33 214.053 144.074 214.901 145.169C215.748 146.264 216.128 147.626 215.962 148.978C215.796 150.331 215.097 151.572 214.007 152.45L214.004 152.453Z" fill="black"/>
<path opacity="0.25" d="M197.34 109.534C199.399 111.726 209 114 209 114C209 114 206.648 103.551 204.589 101.36C203.581 100.421 202.285 99.9374 200.964 100.006C199.643 100.076 198.396 100.692 197.474 101.731C196.553 102.771 196.026 104.155 196.001 105.604C195.976 107.053 196.455 108.458 197.34 109.534Z" fill="black"/>
<path opacity="0.25" d="M191.263 135.211C193.908 136.67 204 135.659 204 135.659C204 135.659 198.742 126.257 196.11 124.809C195.476 124.403 194.772 124.143 194.042 124.045C193.311 123.946 192.57 124.011 191.864 124.236C191.158 124.461 190.502 124.841 189.936 125.352C189.371 125.863 188.908 126.495 188.576 127.208C188.245 127.921 188.052 128.7 188.009 129.497C187.966 130.294 188.075 131.092 188.328 131.842C188.581 132.592 188.973 133.278 189.48 133.856C189.988 134.435 190.599 134.895 191.276 135.207L191.263 135.211Z" fill="black"/>
<path opacity="0.25" d="M188.634 160.33C191.186 162.168 202 163 202 163C202 163 198.02 153.176 195.468 151.32C194.866 150.826 194.167 150.458 193.414 150.237C192.66 150.017 191.869 149.949 191.087 150.038C190.306 150.128 189.552 150.372 188.871 150.757C188.19 151.141 187.598 151.657 187.13 152.274C186.662 152.89 186.328 153.594 186.15 154.341C185.972 155.088 185.952 155.862 186.093 156.617C186.233 157.371 186.531 158.09 186.967 158.728C187.404 159.366 187.97 159.91 188.63 160.327L188.634 160.33Z" fill="black"/>
<path d="M220.82 176C220.82 176 213.652 151.234 222.173 133.034C225.792 125.417 226.882 116.811 225.282 108.509C224.492 104.575 223.349 100.722 221.868 97" stroke="#535461" stroke-width="2" stroke-miterlimit="10"/>
<path d="M227 85.1491C227 88.1885 221.5 97 221.5 97C221.5 97 216 88.1885 216 85.1491C216.092 83.753 216.711 82.4442 217.73 81.4881C218.749 80.532 220.092 80 221.488 80C222.884 80 224.227 80.532 225.246 81.4881C226.265 82.4442 226.884 83.753 226.976 85.1491H227Z" fill="#C9C9C9"/>
<path d="M236.831 102.379C235.065 104.806 225 109 225 109C225 109 225.184 99.1157 226.95 96.6889C227.344 96.062 227.878 95.5137 228.519 95.0777C229.161 94.6418 229.896 94.3276 230.679 94.1546C231.463 93.9816 232.278 93.9534 233.074 94.0719C233.87 94.1903 234.631 94.4529 235.308 94.8432C235.986 95.2336 236.566 95.7435 237.013 96.3413C237.46 96.9391 237.764 97.6122 237.907 98.3189C238.05 99.0256 238.028 99.7508 237.843 100.45C237.658 101.149 237.314 101.806 236.831 102.382V102.379Z" fill="#C9C9C9"/>
<path d="M235.717 131.277C233.076 132.614 223 131.688 223 131.688C223 131.688 228.249 123.073 230.894 121.746C231.527 121.373 232.231 121.133 232.961 121.042C233.691 120.95 234.432 121.009 235.138 121.215C235.844 121.421 236.5 121.769 237.066 122.238C237.631 122.707 238.094 123.287 238.425 123.941C238.756 124.596 238.949 125.311 238.991 126.043C239.033 126.774 238.924 127.507 238.67 128.194C238.416 128.882 238.023 129.511 237.515 130.041C237.007 130.571 236.395 130.992 235.717 131.277V131.277Z" fill="#C9C9C9"/>
<path d="M231.004 152.453C228.521 154.207 218 155 218 155C218 155 221.872 145.629 224.355 143.859C225.551 143.119 226.997 142.843 228.399 143.086C229.801 143.33 231.053 144.074 231.901 145.169C232.748 146.264 233.128 147.626 232.962 148.978C232.796 150.331 232.097 151.572 231.007 152.45L231.004 152.453Z" fill="#C9C9C9"/>
<path d="M213.443 109.853C215.66 111.889 226 114 226 114C226 114 223.467 104.298 221.249 102.262C220.164 101.391 218.769 100.942 217.346 101.006C215.924 101.07 214.58 101.643 213.587 102.608C212.595 103.573 212.028 104.858 212.001 106.204C211.974 107.549 212.489 108.853 213.443 109.853V109.853Z" fill="#C9C9C9"/>
<path d="M207.753 135.255C210.504 136.632 221 135.678 221 135.678C221 135.678 215.532 126.805 212.78 125.438C211.473 124.892 210.004 124.855 208.67 125.336C207.337 125.817 206.239 126.779 205.599 128.027C204.96 129.276 204.826 130.717 205.226 132.058C205.626 133.4 206.53 134.542 207.753 135.252V135.255Z" fill="#C9C9C9"/>
<path d="M205.634 161.33C208.186 163.169 219 164 219 164C219 164 215.02 154.176 212.468 152.32C211.867 151.826 211.167 151.458 210.414 151.237C209.661 151.017 208.869 150.949 208.087 151.038C207.306 151.128 206.552 151.372 205.871 151.757C205.19 152.141 204.598 152.657 204.13 153.274C203.662 153.89 203.328 154.594 203.15 155.341C202.972 156.088 202.952 156.862 203.093 157.617C203.233 158.371 203.531 159.09 203.967 159.728C204.404 160.366 204.97 160.91 205.63 161.327L205.634 161.33Z" fill="#C9C9C9"/>
<path d="M223 175H202V177H223V175Z" fill="#C9C9C9"/>
<defs>
<clipPath id="clip0">
<rect width="171" height="185" fill="white" transform="translate(37)"/>
</clipPath>
</defs>
</svg>
