<svg width="1454" height="1454" viewBox="0 0 1454 1454" fill="none" xmlns="http://www.w3.org/2000/svg">
<g clip-path="url(#clip0)">
<path d="M0 363.5H1454V1090.5H0V363.5Z" fill="#2B5EFF"/>
<path d="M1012.35 1004.93C1111.67 985.116 1215.36 975.665 1317.05 987.297C1363.58 992.477 1409.47 1002.38 1454 1017.65V1090.53H687.197C792.521 1060.36 896.936 1028.65 1003.08 1006.74C1006.17 1006.11 1009.26 1005.56 1012.35 1004.93Z" fill="#2E6BFF"/>
<path d="M3.8147e-06 363.5H1454V1017.62C1409.47 1002.35 1363.58 992.355 1317.05 987.175C1215.36 975.634 1111.67 984.994 1012.35 1004.8C1009.26 1005.44 1006.17 1006.08 1003.08 1006.62C896.936 1028.43 792.521 1060.24 687.197 1090.41H3.8147e-06V363.5Z" fill="#3077FF"/>
<path d="M1019.25 891.484C1016.35 892.211 1013.44 893.029 1010.62 893.756C832.324 941.465 657.39 1015.07 471.278 1054.24C312.973 1087.5 153.67 1080.78 3.8147e-06 1044.97V363.5H1454V885.94C1406.47 869.946 1357.22 860.768 1307.6 857.86C1210.09 851.862 1112.58 867.129 1019.25 891.484Z" fill="#3383FF"/>
<path d="M1454 363.5V753.717C1403.47 736.996 1350.86 728.908 1298.24 728.545C1204.82 727.818 1113.58 749.174 1026.25 778.072C1023.53 778.981 1020.89 779.889 1018.16 780.798C851.317 837.141 685.834 913.566 507.083 955.369C337.419 995.081 165.12 986.63 0.090952 943.919V363.5H1454Z" fill="#358FFF"/>
<path d="M1288.79 599.23C1199.55 604.682 1114.4 631.218 1033.16 664.751C1030.61 665.75 1028.16 666.841 1025.62 667.84C870.219 732.907 714.187 811.877 542.796 856.588C362.137 903.661 176.207 893.665 3.8147e-06 843.138V363.5H1454V620.858C1400.38 603.047 1344.4 595.867 1288.79 599.23Z" fill="#389BFF"/>
<path d="M3.8147e-06 363.5H1454V487.363C1397.38 468.37 1337.95 462.372 1279.34 469.915C1194.28 480.911 1115.31 513.262 1040.06 551.339C1037.7 552.52 1035.43 553.701 1033.07 554.883C889.121 628.582 742.54 710.188 578.419 757.716C387.128 813.15 186.93 802.245 -0.090849 742.631V363.5H3.8147e-06Z" fill="#3C98F5"/>
<path d="M1040.62 441.925C908.127 524.349 770.996 608.226 614.237 658.844C424.672 720.094 222.293 714.096 34.5453 654.027C22.9133 650.302 11.4631 646.394 -0.0780144 642.304V363.5H1192.2C1141.31 382.856 1093.42 409.483 1047.07 438.017C1044.89 439.29 1042.8 440.653 1040.62 441.925Z" fill="#4096EB"/>
<path d="M-0.042595 363.5H1001.4C894.077 441.471 780.119 512.989 649.895 559.972C475.597 622.857 286.395 627.855 109.189 579.146C72.1121 568.968 35.4896 556.246 -0.133448 541.252V363.5H-0.042595Z" fill="#4593E1"/>
<path d="M184.059 504.175C141.166 494.542 98.9998 481.183 58.106 464.371C38.3862 456.283 19.0298 447.287 0.0368854 437.563V363.5H869.347C812.187 401.395 751.482 434.564 685.689 461.1C526.748 525.348 350.633 541.706 184.059 504.175Z" fill="#4B91D6"/>
<path d="M258.649 429.294C190.22 417.843 123.336 395.579 61.6317 363.5H718.658C575.348 428.021 413.681 455.284 258.649 429.294Z" fill="#518ECA"/>
</g>
<defs>
<clipPath id="clip0">
<rect width="1454" height="1454" fill="white" transform="matrix(-1 0 0 1 1454 0)"/>
</clipPath>
</defs>
</svg>
